HIERARCHY
ROOT Hips
{
  OFFSET 0 89.5177 0.535
  CHANNELS 6 Xposition Yposition Zposition Zrotation Xrotation Yrotation
  JOINT Spine
  {
    OFFSET 12.0259 -0.162855 1.69034e-005
    CHANNELS 3 Zrotation Xrotation Yrotation
    JOINT Spine1
    {
      OFFSET 15.3169 -0.0121922 0
      CHANNELS 3 Zrotation Xrotation Yrotation
      JOINT Spine2
      {
        OFFSET 15.3176 -0.0121908 0
        CHANNELS 3 Zrotation Xrotation Yrotation
        JOINT Neck
        {
          OFFSET 19.9142 1.56338 0
          CHANNELS 3 Zrotation Xrotation Yrotation
          JOINT Head
          {
            OFFSET 6.92651 0 0
            CHANNELS 3 Zrotation Xrotation Yrotation
            End Site
            {
              OFFSET 20.7666 0 0
            }
          }
          JOINT LeftShoulder
          {
            OFFSET -6.20654 0.708824 7.28219
            CHANNELS 3 Zrotation Xrotation Yrotation
            JOINT LeftArm
            {
              OFFSET 14.108 0 -1.52588e-005
              CHANNELS 3 Zrotation Xrotation Yrotation
              JOINT LeftForeArm
              {
                OFFSET 28.5802 0 0
                CHANNELS 3 Zrotation Xrotation Yrotation
                JOINT LeftHand
                {
                  OFFSET 27.092 0 0
                  CHANNELS 3 Zrotation Xrotation Yrotation
                  End Site
                  {
                    OFFSET 9.55928 -0.186424 0.145352
                  }
                }
              }
            }
          }
          JOINT RightShoulder
          {
            OFFSET -6.20654 0.708866 -7.28218
            CHANNELS 3 Zrotation Xrotation Yrotation
            JOINT RightArm
            {
              OFFSET 14.108 0 1.52588e-005
              CHANNELS 3 Zrotation Xrotation Yrotation
              JOINT RightForeArm
              {
                OFFSET 28.5802 0 0
                CHANNELS 3 Zrotation Xrotation Yrotation
                JOINT RightHand
                {
                  OFFSET 27.092 0 0
                  CHANNELS 3 Zrotation Xrotation Yrotation
                  End Site
                  {
                    OFFSET 9.55929 -0.186417 -0.145354
                  }
                }
              }
            }
          }
        }
      }
    }
  }
  JOINT LeftUpLeg
  {
    OFFSET 0.005 -0.535 8.837
    CHANNELS 3 Zrotation Xrotation Yrotation
    JOINT LeftLeg
    {
      OFFSET 39.9035 0 0
      CHANNELS 3 Zrotation Xrotation Yrotation
      JOINT LeftFoot
      {
        OFFSET 39.6689 0 0
        CHANNELS 3 Zrotation Xrotation Yrotation
        JOINT LeftToe
        {
          OFFSET 10.1624 13.6296 0
          CHANNELS 3 Zrotation Xrotation Yrotation
          End Site
          {
            OFFSET 8.38147 0 0
          }
        }
      }
    }
  }
  JOINT RightUpLeg
  {
    OFFSET 0.005 -0.535 -8.837
    CHANNELS 3 Zrotation Xrotation Yrotation
    JOINT RightLeg
    {
      OFFSET 39.9035 0 0
      CHANNELS 3 Zrotation Xrotation Yrotation
      JOINT RightFoot
      {
        OFFSET 39.6689 0 0
        CHANNELS 3 Zrotation Xrotation Yrotation
        JOINT RightToe
        {
          OFFSET 10.1624 13.6296 0
          CHANNELS 3 Zrotation Xrotation Yrotation
          End Site
          {
            OFFSET 8.38147 0 0
          }
        }
      }
    }
  }
}
MOTION
Frames:	12
Frame Time:	0.0333333
160.614 88.5213 -161.751 -121.068 -72.8973 151.714 0.977285 -1.96474 1.99714 2.02429 -3.89343 4.03119 2.02429 -3.89343 4.03118 -8.30907e-012 -9.0191e-006 -5.27751e-005 16.0833 1.33326 -0.262658 -174.904 -24.1234 -77.6913 -37.6058 -7.97279 54.436 -39.5447 -6.36111e-015 -6.36111e-015 -30.5492 -58.4694 -34.6306 -175.202 15.7795 72.8451 -22.8598 4.14186 -49.1546 -12.9041 -3.18055e-015 -4.55962e-015 -62.9918 69.1411 65.9678 -7.88917 22.6376 -174.95 -14.9938 3.18055e-015 -0 12.5201 2.44473 -4.23199 90 1.49089e-016 1.59028e-015 -19.1547 -23.4386 178.613 -29.0415 6.36111e-015 3.18056e-015 29.5014 -18.9133 8.3023 90 7.95139e-016 -0 
160.858 88.4701 -161.884 -120.877 -73.4275 151.686 0.881413 -1.87754 1.92695 1.82698 -3.72365 3.88584 1.82698 -3.72365 3.88583 -8.30907e-012 -9.0191e-006 -5.27751e-005 15.2151 1.76331 -1.57286 -174.76 -24.2872 -77.4288 -34.8703 -7.25542 52.014 -37.7629 -3.18055e-015 -3.18055e-015 -29.9022 -57.6508 -33.8547 -175.39 15.8483 73.5515 -23.2146 6.04258 -45.7356 -12.3512 0 5.06901e-015 -62.8831 69.0894 65.8518 -7.54841 22.4438 -174.633 -14.81 0 -1.19271e-015 12.6172 2.61228 -4.47525 90 0 1.59028e-015 -18.4071 -23.5006 179.013 -28.8319 9.54167e-015 -0 29.6444 -18.6549 7.8216 90 2.38542e-015 -0 
161.057 88.4133 -161.989 -120.808 -74.1283 151.371 0.818455 -1.79452 1.87542 1.69649 -3.56062 3.77921 1.69649 -3.56062 3.7792 -8.30748e-012 -9.0191e-006 -5.27751e-005 14.5256 2.18072 -2.64472 -174.729 -24.2714 -77.35 -31.3221 -7.50732 49.2399 -35.2827 -3.18055e-015 -3.18055e-015 -29.3438 -57.1661 -33.2086 -175.651 15.8427 74.4337 -22.9056 8.59946 -42.2386 -12.207 3.18055e-015 -9.93923e-017 -63.3229 69.0167 66.3247 -7.18759 22.0471 -174.195 -14.5486 0 1.19271e-015 12.7783 2.80188 -4.7354 90 -9.93923e-017 -7.95139e-016 -17.538 -23.6317 179.562 -28.5276 -3.18056e-015 -3.18056e-015 29.6275 -18.2994 7.33706 90 -7.95139e-016 -0 
161.217 88.3649 -162.072 -120.889 -74.9044 150.839 0.756148 -1.70854 1.81786 1.5672 -3.39159 3.66071 1.5672 -3.39159 3.6607 -8.30907e-012 -9.0191e-006 -5.27751e-005 14.0159 2.58661 -3.33436 -174.753 -24.2227 -77.3841 -27.5315 -8.82173 46.1341 -32.169 6.36111e-015 3.18055e-015 -29.2687 -56.6203 -33.0668 -175.903 15.8563 75.31 -22.7182 11.3189 -38.4999 -12.1367 0 -2.78299e-015 -64.0135 68.7973 67.0689 -6.7528 21.5611 -173.766 -14.1001 1.59028e-015 -3.97569e-016 12.9227 2.94168 -4.91008 90 -4.96962e-016 -0 -16.4964 -23.3179 -179.663 -27.9226 -3.18056e-015 -3.18056e-015 29.2692 -17.4961 6.43005 90 -1.59028e-015 -0 
161.321 88.323 -162.137 -121.121 -75.7414 150.191 0.697375 -1.6429 1.7348 1.44509 -3.26333 3.49176 1.44509 -3.26333 3.49175 -8.30748e-012 -9.0191e-006 -5.27751e-005 13.5448 3.04166 -3.87917 -174.803 -24.2394 -77.5086 -23.8881 -11.0171 42.7326 -28.8648 9.54166e-015 -3.18055e-015 -29.1487 -56.0105 -32.867 -176.127 15.965 76.1723 -23.0015 14.0048 -34.6312 -12.1382 0 -1.70955e-014 -64.6919 68.5772 67.802 -6.26016 21.1182 -173.448 -13.5228 -1.59028e-015 -1.59028e-015 13.0041 3.04699 -5.02671 90 -5.2181e-016 -0 -15.4704 -22.9082 -178.921 -27.2225 -1.27222e-014 -6.36111e-015 28.7601 -16.5381 5.35965 90 -7.95139e-016 -0 
161.366 88.2826 -162.173 -121.988 -76.6601 148.945 0.624552 -1.58999 1.62451 1.2947 -3.16106 3.2683 1.2947 -3.16106 3.26829 -8.31066e-012 -9.0191e-006 -5.27751e-005 13.2422 3.21541 -4.13317 -174.971 -24.1402 -77.8575 -20.8018 -13.7348 39.1052 -25.3977 4.77083e-015 7.15625e-015 -28.9648 -55.45 -32.6035 -176.333 16.1569 77.03 -23.2566 16.9169 -30.9243 -12.2927 -6.36111e-015 -1.59028e-015 -65.1188 68.5022 68.2631 -5.84239 20.3911 -173.185 -12.9641 -3.18055e-015 3.97569e-016 13.0788 3.11308 -5.09278 90 3.23025e-016 -1.59028e-015 -14.7497 -23.13 -178.47 -26.8408 0 -0 28.5442 -16.0358 4.87478 90 -3.97569e-016 -9.54166e-015 
161.352 88.28 -162.196 -122.874 -77.6481 147.774 0.582333 -1.53587 1.48469 1.20494 -3.05558 2.98668 1.20494 -3.05558 2.98667 -8.30589e-012 -9.0191e-006 -5.27751e-005 12.9996 3.1275 -4.21675 -175.217 -24.0489 -78.396 -18.5527 -16.7898 35.4825 -21.9004 1.39149e-015 -8.54774e-015 -29.1659 -54.9053 -32.7453 -176.562 16.3695 77.9665 -23.654 19.5983 -27.4224 -12.6297 6.36111e-015 5.1684e-015 -65.6175 68.4153 68.8025 -5.42833 19.7508 -172.946 -12.4408 -1.59028e-015 3.97569e-016 12.8539 3.45833 -5.58224 90 2.23633e-016 2.38542e-015 -14.019 -23.3266 -178.178 -26.378 3.18056e-015 -0 28.0981 -15.4696 4.50892 90 -3.97569e-016 3.18055e-015 
161.27 88.3189 -162.205 -123.987 -78.5526 146.582 0.550766 -1.46512 1.27535 1.13458 -2.91707 2.56615 1.13458 -2.91707 2.56614 -8.30748e-012 -9.0191e-006 -5.27751e-005 12.8004 2.85425 -4.08507 -175.466 -24.0305 -78.9798 -17.2216 -19.7994 31.6532 -19.0055 -1.98785e-015 -3.18055e-015 -29.184 -54.4995 -32.7107 -176.8 16.5209 78.8768 -23.9683 21.8888 -24.2503 -13.3129 3.18055e-015 1.59028e-015 -66.1701 68.4299 69.3984 -5.0234 19.11 -172.974 -11.9555 0 -3.97569e-016 12.4559 3.72527 -5.95284 90 -4.22417e-016 -7.95139e-016 -13.5246 -23.6054 -178.196 -26.0181 0 4.77083e-015 27.7433 -15.0808 4.3892 90 -1.19271e-015 -3.18055e-015 
161.144 88.3673 -162.223 -125.757 -79.5886 144.696 0.520472 -1.42351 1.08579 1.06834 -2.83637 2.18564 1.06834 -2.83637 2.18564 -8.30828e-012 -9.0191e-006 -5.27751e-005 12.6231 2.31965 -3.90801 -175.686 -24.2582 -79.5949 -16.6038 -23.3476 28.1474 -16.5538 3.18055e-015 1.59028e-015 -29.119 -54.0177 -32.5763 -177.062 16.8019 79.9321 -24.5601 23.7441 -21.3099 -13.8192 -3.18055e-015 -6.36111e-015 -66.4072 68.5375 69.6519 -4.69478 18.0574 -173.041 -11.6899 -3.18055e-015 -1.19271e-015 12.236 3.71044 -5.92362 90 1.49089e-016 -0 -12.9446 -23.9031 -178.184 -25.5197 -6.36111e-015 -1.59028e-015 27.2152 -14.5588 4.23862 90 -7.95139e-016 -0 
160.977 88.4029 -162.246 -128.335 -80.5759 141.978 0.457462 -1.3846 0.912226 0.937334 -2.76123 1.83645 0.937333 -2.76123 1.83644 -8.30589e-012 -9.0191e-006 -5.27751e-005 12.7131 1.65205 -3.73824 -175.93 -24.5926 -80.2964 -16.6028 -26.3546 24.8566 -15.1257 1.59028e-015 1.59028e-015 -29.0966 -53.7388 -32.5136 -177.267 17.2217 80.8399 -25.7114 25.0544 -18.1413 -13.7845 -6.36111e-015 -0 -66.3407 68.6102 69.5783 -4.41564 17.1581 -173.074 -11.3254 1.59028e-015 2.38542e-015 11.9734 3.85108 -6.10766 90 -4.96962e-017 -2.38542e-015 -12.4401 -24.1144 -178.17 -25.057 6.36111e-015 3.18056e-015 26.7303 -14.07 4.08537 90 -1.59028e-015 -0 
160.77 88.4368 -162.265 -131.073 -81.4657 139.106 0.416403 -1.3224 0.758033 0.850616 -2.63867 1.52643 0.850616 -2.63867 1.52642 -8.30748e-012 -9.0191e-006 -5.27751e-005 12.7575 0.850534 -3.53846 -176.153 -25.0513 -80.9763 -17.1275 -29.1833 21.9113 -14.5362 6.36111e-015 -1.59028e-015 -29.6101 -53.6928 -33.047 -177.49 17.59 81.7461 -26.6718 26.4031 -15.115 -13.6145 3.18055e-015 6.36111e-015 -66.3583 68.5952 69.5977 -4.07284 16.4388 -173.123 -10.8338 1.59028e-015 -0 11.641 4.07995 -6.41061 90 1.73937e-016 -0 -11.9612 -23.9528 -178.149 -24.6398 -3.18056e-015 -2.38542e-015 26.2864 -13.646 3.96763 90 0 3.18055e-015 
160.532 88.4698 -162.293 -134.458 -82.3675 135.572 0.399285 -1.2847 0.626754 0.812915 -2.56446 1.26309 0.812915 -2.56446 1.26308 -8.30907e-012 -9.0191e-006 -5.27751e-005 12.6319 0.089595 -3.33154 -176.278 -25.5851 -81.4325 -18.1157 -31.3802 18.9436 -14.6864 -6.36111e-015 4.77083e-015 -30.1567 -53.7475 -33.6309 -177.696 18.0499 82.6008 -27.5663 28.0605 -12.4395 -13.3293 3.18055e-015 1.59028e-015 -66.7766 68.303 70.0567 -3.67862 15.6426 -173.192 -10.3303 -1.59028e-015 7.95139e-016 11.3451 4.25591 -6.63233 90 -2.48481e-017 7.95139e-016 -11.554 -23.4587 -178.264 -24.5359 -3.18056e-015 -1.59028e-015 26.2539 -13.7487 4.39381 90 -7.95139e-016 -1.59028e-015 
